<?xml version="1.0" standalone="no"?>
<!DOCTYPE svg PUBLIC "-//W3C//DTD SVG 20010904//EN"
 "http://www.w3.org/TR/2001/REC-SVG-20010904/DTD/svg10.dtd">
<svg version="1.0" xmlns="http://www.w3.org/2000/svg"
 width="400.000000pt" height="400.000000pt" viewBox="0 0 400.000000 400.000000"
 preserveAspectRatio="xMidYMid meet">
<metadata>
Created by potrace 1.11, written by Peter Selinger 2001-2013
</metadata>
<g transform="translate(0.000000,400.000000) scale(0.100000,-0.100000)"
fill="#000000" stroke="none">
<path d="M1430 2975 c0 -8 5 -15 10 -15 6 0 10 7 10 15 0 8 -4 15 -10 15 -5 0
-10 -7 -10 -15z"/>
<path d="M1990 2939 c0 -50 0 -50 -22 -35 -32 23 -65 20 -93 -9 -34 -33 -34
-93 -2 -123 25 -23 90 -31 102 -12 5 8 11 7 21 -1 8 -6 15 -10 17 -8 7 12 -6
239 -14 239 -5 0 -9 -23 -9 -51z m-16 -58 c27 -30 18 -91 -16 -110 -25 -14
-29 -14 -55 5 -33 25 -41 66 -18 100 19 30 64 32 89 5z"/>
<path d="M1310 2905 c-23 -41 -45 -75 -49 -75 -4 0 -25 31 -47 70 -21 38 -45
70 -51 70 -10 0 -13 -29 -13 -110 0 -67 4 -110 10 -110 6 0 10 38 10 93 l1 92
41 -72 c23 -40 45 -73 49 -73 4 0 26 33 48 73 l41 72 0 -92 c0 -76 3 -93 15
-93 12 0 15 19 15 115 0 141 -11 148 -70 40z"/>
<path d="M2150 2865 l0 -115 66 0 c59 0 68 3 95 29 23 24 29 38 29 75 0 92
-36 126 -135 126 l-55 0 0 -115z m145 70 c19 -18 25 -35 25 -70 0 -64 -31 -95
-95 -95 l-45 0 0 95 0 95 45 0 c35 0 52 -6 70 -25z"/>
<path d="M1430 2835 c0 -50 4 -85 10 -85 6 0 10 35 10 85 0 50 -4 85 -10 85
-6 0 -10 -35 -10 -85z"/>
<path d="M1496 2908 c4 -7 18 -27 31 -44 l23 -30 -31 -42 c-36 -49 -23 -57 16
-9 l26 32 29 -34 c16 -19 32 -32 36 -28 4 3 -5 20 -20 37 -14 17 -26 36 -26
42 0 5 14 28 31 49 19 24 25 39 17 39 -7 0 -24 -16 -38 -36 l-24 -36 -31 36
c-29 34 -54 50 -39 24z"/>
<path d="M1687 2900 c-14 -11 -28 -33 -32 -49 -7 -33 15 -85 40 -95 27 -10 80
-7 93 6 19 19 14 33 -6 15 -23 -21 -51 -22 -80 -1 -43 30 -28 44 48 44 68 0
70 1 70 25 0 33 -45 75 -80 75 -15 0 -39 -9 -53 -20z m95 -17 c34 -31 23 -43
-42 -43 -45 0 -60 3 -60 14 0 41 67 61 102 29z"/>
<path d="M2417 2909 c-26 -15 -49 -67 -41 -92 9 -30 34 -57 62 -68 25 -10 92
12 92 30 0 16 -16 13 -30 -4 -16 -19 -50 -19 -78 1 -43 30 -28 44 48 44 68 0
70 1 70 25 0 55 -73 93 -123 64z m85 -26 c34 -31 23 -43 -42 -43 -64 0 -73 9
-43 42 20 22 61 23 85 1z"/>
<path d="M2562 2912 c2 -5 16 -43 33 -85 16 -42 35 -77 43 -77 12 0 38 51 68
133 24 68 -6 36 -34 -36 -15 -37 -29 -67 -33 -67 -4 0 -19 32 -34 70 -15 39
-31 70 -37 70 -5 0 -8 -4 -6 -8z"/>
<path d="M2756 2901 c-29 -32 -16 -54 42 -75 28 -10 52 -24 52 -30 0 -33 -51
-47 -92 -25 -16 9 -19 8 -16 -2 10 -31 102 -28 122 4 16 25 -3 49 -55 68 -24
9 -44 22 -43 28 2 25 5 29 19 35 8 3 27 1 41 -5 30 -11 46 -3 24 11 -26 16
-76 11 -94 -9z"/>
<path d="M1804 2427 c-105 -62 -272 -159 -372 -216 l-182 -105 0 -437 0 -437
188 -108 c103 -59 271 -157 375 -217 l187 -108 343 196 c188 109 359 208 380
221 l37 24 -2 432 -3 432 -375 217 c-206 120 -377 218 -380 218 -3 0 -91 -51
-196 -112z m352 -150 c78 -45 212 -122 297 -172 l156 -90 1 -345 0 -346 -167
-96 c-93 -53 -227 -130 -300 -172 -72 -42 -138 -76 -146 -76 -7 0 -144 75
-303 168 l-289 167 -3 352 -2 351 142 83 c79 45 211 122 293 171 83 48 157 88
165 88 8 0 79 -37 156 -83z"/>
<path d="M1727 2133 l-267 -156 2 -310 3 -310 170 -99 c94 -54 213 -123 266
-153 l96 -55 269 154 269 155 3 309 2 308 -269 157 c-148 86 -271 157 -273
157 -2 -1 -123 -71 -271 -157z m466 -135 c94 -56 181 -101 191 -100 14 1 16
-2 7 -11 -7 -7 -11 -77 -11 -223 l0 -213 -92 -54 c-51 -30 -137 -80 -191 -111
l-99 -57 -189 108 -189 108 0 223 0 222 43 26 c241 142 334 193 345 189 7 -2
90 -50 185 -107z"/>
<path d="M1840 1944 c-123 -71 -146 -89 -153 -114 -4 -16 -6 -101 -5 -187 l3
-157 150 -88 c83 -48 157 -87 165 -87 8 0 83 39 165 88 l150 87 0 183 0 183
-150 88 c-82 49 -157 89 -165 89 -8 -1 -80 -39 -160 -85z m250 -116 l90 -53 0
-106 0 -107 -90 -51 -90 -52 -90 52 -90 51 0 107 0 107 88 51 c48 29 88 52 90
53 1 0 43 -24 92 -52z"/>
<path d="M1940 1767 l-55 -32 -3 -61 c-3 -67 1 -73 76 -115 l44 -24 56 32 57
31 3 70 3 70 -57 31 c-32 17 -60 31 -64 31 -3 0 -30 -15 -60 -33z"/>
</g>
</svg>
