<?xml version="1.0" standalone="no"?>
<!DOCTYPE svg PUBLIC "-//W3C//DTD SVG 20010904//EN"
 "http://www.w3.org/TR/2001/REC-SVG-20010904/DTD/svg10.dtd">
<svg version="1.0" xmlns="http://www.w3.org/2000/svg"
 width="200.000000pt" height="200.000000pt" viewBox="0 0 200.000000 200.000000"
 preserveAspectRatio="xMidYMid meet">
<metadata>
Created by potrace 1.11, written by Peter Selinger 2001-2013
</metadata>
<g transform="translate(0.000000,200.000000) scale(0.100000,-0.100000)"
fill="#000000" stroke="none">
<path d="M186 1147 c-47 -26 -86 -94 -86 -146 1 -51 32 -114 71 -142 46 -33
153 -35 195 -3 88 65 104 179 33 238 -75 64 -182 31 -209 -64 -27 -93 86 -156
148 -84 27 31 24 80 -5 102 -24 18 -38 15 -70 -12 -23 -20 -26 -28 -17 -43 13
-21 45 -24 52 -5 2 6 -4 12 -14 12 -17 0 -17 1 -1 17 16 16 18 16 33 1 10 -10
14 -23 9 -37 -18 -58 -98 -43 -103 19 -7 86 120 116 153 36 35 -83 -43 -168
-132 -144 -76 20 -108 118 -60 189 24 37 102 82 130 75 9 -2 15 0 11 5 -11 18
-98 9 -138 -14z"/>
<path d="M1042 1018 c-1 -75 4 -98 24 -98 10 0 13 7 8 25 -3 13 -7 49 -7 80
-2 79 -24 72 -25 -7z"/>
<path d="M1372 1003 c3 -77 3 -78 31 -81 37 -5 57 13 57 52 0 38 -15 56 -47
56 -17 0 -22 5 -20 21 1 12 -4 24 -11 26 -10 4 -12 -13 -10 -74z m64 -17 c7
-30 -1 -46 -25 -46 -17 0 -19 11 -12 63 2 18 31 5 37 -17z"/>
<path d="M1656 1071 c-4 -5 -3 -16 0 -25 5 -12 0 -16 -20 -16 -28 0 -46 -24
-46 -63 0 -32 19 -47 58 -44 l32 2 0 78 c0 69 -9 93 -24 68z m-1 -96 c0 -20
-6 -31 -17 -33 -11 -2 -19 3 -19 12 -1 9 -2 22 -3 29 -3 19 5 28 22 25 11 -2
17 -13 17 -33z"/>
<path d="M560 995 l0 -75 39 0 c46 0 71 26 71 75 0 49 -25 75 -71 75 l-39 0 0
-75z m79 33 c9 -25 5 -68 -9 -81 -4 -5 -16 -7 -26 -5 -15 3 -19 13 -20 56 -2
49 0 52 22 52 16 0 28 -8 33 -22z"/>
<path d="M920 1060 c0 -5 7 -10 15 -10 8 0 15 5 15 10 0 6 -7 10 -15 10 -8 0
-15 -4 -15 -10z"/>
<path d="M980 1060 c0 -5 7 -10 15 -10 8 0 15 5 15 10 0 6 -7 10 -15 10 -8 0
-15 -4 -15 -10z"/>
<path d="M1159 1028 c-2 -24 -3 -58 -1 -75 3 -31 6 -33 43 -33 44 0 53 17 12
22 -29 3 -30 4 -32 86 -1 23 -5 42 -10 42 -5 0 -11 -19 -12 -42z"/>
<path d="M695 1020 c-4 -6 7 -10 24 -10 17 0 31 -4 31 -10 0 -5 -8 -10 -19
-10 -24 0 -44 -24 -39 -47 2 -14 13 -18 45 -19 l42 -2 -5 45 c-2 25 -7 49 -10
54 -7 12 -61 11 -69 -1z m55 -65 c0 -8 -6 -15 -14 -15 -17 0 -28 14 -19 24 12
12 33 6 33 -9z"/>
<path d="M807 1021 c-2 -3 -3 -26 -2 -50 1 -59 23 -66 27 -9 2 31 8 44 21 46
14 3 17 -4 17 -43 0 -31 4 -45 12 -43 12 4 16 64 5 91 -4 11 -17 16 -42 15
-20 -1 -37 -4 -38 -7z"/>
<path d="M918 1018 c7 -7 12 -31 12 -55 0 -24 5 -43 10 -43 6 0 10 25 10 55 0
50 -2 55 -22 55 -17 0 -19 -3 -10 -12z"/>
<path d="M980 1016 c6 -8 11 -25 10 -38 -4 -40 0 -58 10 -58 6 0 10 25 10 55
0 49 -2 55 -21 55 -18 0 -19 -3 -9 -14z"/>
<path d="M1263 1003 c-6 -18 -6 -38 -1 -55 8 -23 15 -28 44 -28 39 0 46 17 9
22 -37 4 -35 22 3 26 36 4 35 2 22 36 -14 38 -64 37 -77 -1z m57 -7 c0 -12
-10 -14 -38 -7 -2 1 0 6 3 11 9 15 35 12 35 -4z"/>
<path d="M1488 1005 c-17 -39 0 -79 36 -83 16 -2 33 1 39 7 8 8 2 11 -21 11
-22 0 -32 5 -32 15 0 10 10 15 30 15 22 0 30 5 30 18 0 46 -63 58 -82 17z m56
-4 c3 -5 -1 -12 -10 -15 -22 -9 -24 -8 -24 9 0 16 25 21 34 6z"/>
<path d="M1717 1010 c-9 -14 -12 -31 -8 -53 6 -28 11 -32 41 -32 18 0 35 5 37
10 2 6 -9 11 -23 10 -15 0 -29 6 -31 13 -3 8 7 12 30 12 34 0 35 1 28 28 -10
35 -52 43 -74 12z m43 -20 c-20 -12 -33 -1 -19 16 9 11 15 12 23 4 8 -8 7 -13
-4 -20z"/>
<path d="M1813 1003 c19 -96 49 -109 72 -31 18 61 17 58 6 58 -5 0 -16 -19
-24 -42 l-14 -43 -13 43 c-14 46 -36 58 -27 15z"/>
</g>
</svg>
